<svg width="0" height="0" class="hidden">
  <symbol xmlns="http://www.w3.org/2000/svg"  viewBox="0 -960 960 960" id="sport">
    <path d="M480-80q-83 0-156-31.5T197-197q-54-54-85.5-127T80-480q0-83 31.5-156T197-763q54-54 127-85.5T480-880q83 0 156 31.5T763-763q54 54 85.5 127T880-480q0 83-31.5 156T763-197q-54 54-127 85.5T480-80Zm200-500 54-18 16-54q-32-48-77-82.5T574-786l-54 38v56l160 112Zm-400 0 160-112v-56l-54-38q-54 17-99 51.5T210-652l16 54 54 18Zm-42 308 46-4 30-54-58-174-56-20-40 30q0 65 18 118.5T238-272Zm242 112q26 0 51-4t49-12l28-60-26-44H378l-26 44 28 60q24 8 49 12t51 4Zm-90-200h180l56-160-146-102-144 102 54 160Zm332 88q42-50 60-103.5T800-494l-40-28-56 18-58 174 30 54 46 4Z"></path>
  </symbol>
  <symbol xmlns="http://www.w3.org/2000/svg"  viewBox="0 -960 960 960" id="menu">
    <path d="M120-240v-80h720v80H120Zm0-200v-80h720v80H120Zm0-200v-80h720v80H120Z"></path>
  </symbol>
  <symbol xmlns="http://www.w3.org/2000/svg"  viewBox="0 -960 960 960" id="housed">
    <path d="M400-120q-66 0-113-47t-47-113q0-66 47-113t113-47q23 0 42.5 5.5T480-418v-422h240v160H560v400q0 66-47 113t-113 47Z"></path>
  </symbol>
  <symbol xmlns="http://www.w3.org/2000/svg"  viewBox="0 -960 960 960" id="svg">
    <path d="M200-160v-366L88-440l-48-64 440-336 160 122v-82h120v174l160 122-48 64-112-86v366H520v-240h-80v240H200Zm80-80h80v-240h240v240h80v-347L480-739 280-587v347Zm120-319h160q0-32-24-52.5T480-632q-32 0-56 20.5T400-559Zm-40 319v-240h240v240-240H360v240Z"></path>
  </symbol>
  <symbol xmlns="http://www.w3.org/2000/svg"  viewBox="0 -960 960 960" id="">
    <path d="M440-80v-331q-18-11-29-28.5T400-480q0-33 23.5-56.5T480-560q33 0 56.5 23.5T560-480q0 23-11 41t-29 28v331h-80ZM204-190q-57-55-90.5-129.5T80-480q0-83 31.5-156T197-763q54-54 127-85.5T480-880q83 0 156 31.5T763-763q54 54 85.5 127T880-480q0 86-33.5 161T756-190l-56-56q46-44 73-104.5T800-480q0-134-93-227t-227-93q-134 0-227 93t-93 227q0 69 27 129t74 104l-57 57Zm113-113q-35-33-56-78.5T240-480q0-100 70-170t170-70q100 0 170 70t70 170q0 53-21 99t-56 78l-57-57q25-23 39.5-54t14.5-66q0-66-47-113t-113-47q-66 0-113 47t-47 113q0 36 14.5 66.5T374-360l-57 57Z"></path>
  </symbol>
  <symbol xmlns="http://www.w3.org/2000/svg"  viewBox="0 -960 960 960" id="podcasts">
    <path d="M480-80q-75 0-140.5-28.5t-114-77q-48.5-48.5-77-114T120-440h80q0 117 81.5 198.5T480-160q117 0 198.5-81.5T760-440q0-117-81.5-198.5T480-720h-6l62 62-56 58-160-160 160-160 56 58-62 62h6q75 0 140.5 28.5t114 77q48.5 48.5 77 114T840-440q0 75-28.5 140.5t-77 114q-48.5 48.5-114 77T480-80ZM380-320v-60h120v-40H380v-140h180v60H440v40h80q17 0 28.5 11.5T560-420v60q0 17-11.5 28.5T520-320H380Z"></path>
  </symbol>

    <symbol xmlns="http://www.w3.org/2000/svg" fill="#e3e3e3" viewBox="0 -960 960 960" id="arrow_forward">
    <path d="m321-80-71-71 329-329-329-329 71-71 400 400L321-80Z"></path>
  </symbol>



  <symbol    width="25px"  height="25px"  version="1.1" id="play" xmlns="http://www.w3.org/2000/svg" xmlns:xlink="http://www.w3.org/1999/xlink" xml:space="preserve" viewBox="0 0 41.999 41.999">
    <path d="M36.068,20.176l-29-20C6.761-0.035,6.363-0.057,6.035,0.114C5.706,0.287,5.5,0.627,5.5,0.999v40
	c0,0.372,0.206,0.713,0.535,0.886c0.146,0.076,0.306,0.114,0.465,0.114c0.199,0,0.397-0.06,0.568-0.177l29-20
	c0.271-0.187,0.432-0.494,0.432-0.823S36.338,20.363,36.068,20.176z"></path>
  </symbol>
  
  <symbol  fill="white"  width="25px"  height="25px"  version="1.1" id="plays" xmlns="http://www.w3.org/2000/svg" xmlns:xlink="http://www.w3.org/1999/xlink" xml:space="preserve" viewBox="0 0 41.999 41.999">
    <path d="M36.068,20.176l-29-20C6.761-0.035,6.363-0.057,6.035,0.114C5.706,0.287,5.5,0.627,5.5,0.999v40
	c0,0.372,0.206,0.713,0.535,0.886c0.146,0.076,0.306,0.114,0.465,0.114c0.199,0,0.397-0.06,0.568-0.177l29-20
	c0.271-0.187,0.432-0.494,0.432-0.823S36.338,20.363,36.068,20.176z"></path>
  </symbol>

  <symbol xmlns="http://www.w3.org/2000/svg"  viewBox="0 -960 960 960" id="times">
    <path d="m380-300 280-180-280-180v360ZM160-160q-33 0-56.5-23.5T80-240v-480q0-33 23.5-56.5T160-800h640q33 0 56.5 23.5T880-720v480q0 33-23.5 56.5T800-160H160Zm0-80h640v-480H160v480Zm0 0v-480 480Z"></path>
  </symbol>
  <symbol xmlns="http://www.w3.org/2000/svg"  viewBox="0 -960 960 960" id="fleche">
    <path d="M400-240 160-480l240-240 56 58-142 142h486v80H314l142 142-56 58Z"></path>
  </symbol>
</svg>